# xmcd
#
# Track frame offsets: 
#        150
#        32876
#        58857
#        87762
#        110131
#        132569
#        150071
#        170989
#        194232
#        210372
#        230835
#        249940
#
# Disc length: 3726 seconds
#
# Revision: 0
# Processed by: cddbd v1.5.2PL0 Copyright (c) Steve Scherf et al.
# Submitted via: ExactAudioCopyFreeDBPlugin 1.0
#
DISCID=ad0e8c0c
DTITLE=瑞鸣 - 禅▪意 天人合一
DYEAR=1900
DGENRE=Classical
TTITLE0=普庵咒
TTITLE1=疾风
TTITLE2=禅钟
TTITLE3=暮雨潇潇
TTITLE4=唐风
TTITLE5=幽思
TTITLE6=醉渔唱晚
TTITLE7=秋露
TTITLE8=卧龙吟
TTITLE9=忘
TTITLE10=酒狂
TTITLE11=龙翔操
EXTD=
EXTT0=
EXTT1=
EXTT2=
EXTT3=
EXTT4=
EXTT5=
EXTT6=
EXTT7=
EXTT8=
EXTT9=
EXTT10=
EXTT11=
PLAYORDER=
